HIERARCHY
ROOT Hips
{
	OFFSET 0.00000 0.00000 0.00000
	CHANNELS 6 Xposition Yposition Zposition Zrotation Yrotation Xrotation 
	JOINT LHipJoint
	{
		OFFSET 0 0 0
		CHANNELS 3 Zrotation Yrotation Xrotation
		JOINT LeftUpLeg
		{
			OFFSET 1.53139 -1.83434 0.76626
			CHANNELS 3 Zrotation Yrotation Xrotation
			JOINT LeftLeg
			{
				OFFSET 2.56112 -7.03663 0.00000
				CHANNELS 3 Zrotation Yrotation Xrotation
				JOINT LeftFoot
				{
					OFFSET 2.59983 -7.14299 0.00000
					CHANNELS 3 Zrotation Yrotation Xrotation
					JOINT LeftToeBase
					{
						OFFSET 0.13742 -0.37757 2.00054
						CHANNELS 3 Zrotation Yrotation Xrotation
						End Site
						{
							OFFSET 0.00000 -0.00000 1.02897
						}
					}
				}
			}
		}
	}
	JOINT RHipJoint
	{
		OFFSET 0 0 0
		CHANNELS 3 Zrotation Yrotation Xrotation
		JOINT RightUpLeg
		{
			OFFSET -1.40122 -1.83435 0.76627
			CHANNELS 3 Zrotation Yrotation Xrotation
			JOINT RightLeg
			{
				OFFSET -2.54052 -6.98003 0.00000
				CHANNELS 3 Zrotation Yrotation Xrotation
				JOINT RightFoot
				{
					OFFSET -2.63179 -7.23079 0.00000
					CHANNELS 3 Zrotation Yrotation Xrotation
					JOINT RightToeBase
					{
						OFFSET -0.24131 -0.66299 2.03908
						CHANNELS 3 Zrotation Yrotation Xrotation
						End Site
						{
							OFFSET -0.00000 -0.00000 1.07391
						}
					}
				}
			}
		}
	}
	JOINT LowerBack
	{
		OFFSET 0 0 0
		CHANNELS 3 Zrotation Yrotation Xrotation
		JOINT Spine
		{
			OFFSET 0.01174 2.10302 -0.29778
			CHANNELS 3 Zrotation Yrotation Xrotation
			JOINT Spine1
			{
				OFFSET 0.00772 2.13227 -0.01247
				CHANNELS 3 Zrotation Yrotation Xrotation
				JOINT Neck
				{
					OFFSET 0 0 0
					CHANNELS 3 Zrotation Yrotation Xrotation
					JOINT Neck1
					{
						OFFSET -0.09219 1.60848 0.31481
						CHANNELS 3 Zrotation Yrotation Xrotation
						JOINT Head
						{
							OFFSET 0.13974 1.65456 -0.31134
							CHANNELS 3 Zrotation Yrotation Xrotation
							End Site
							{
								OFFSET 0.04742 1.69515 -0.14578
							}
						}
					}
				}
				JOINT LeftShoulder
				{
					OFFSET 0 0 0
					CHANNELS 3 Zrotation Yrotation Xrotation
					JOINT LeftArm
					{
						OFFSET 3.24909 1.02882 -0.23993
						CHANNELS 3 Zrotation Yrotation Xrotation
						JOINT LeftForeArm
						{
							OFFSET 5.32955 -0.00000 -0.00000
							CHANNELS 3 Zrotation Yrotation Xrotation
							JOINT LeftHand
							{
								OFFSET 3.69232 -0.00000 -0.00000
								CHANNELS 3 Zrotation Yrotation Xrotation
								JOINT LeftFingerBase
								{
									OFFSET 0 0 0
									CHANNELS 3 Zrotation Yrotation Xrotation
									JOINT LeftHandIndex1
									{
										OFFSET 0.53660 -0.00000 -0.00000
										CHANNELS 3 Zrotation Yrotation Xrotation
										End Site
										{
											OFFSET 0.43262 -0.00000 -0.00000
										}
									}
								}
								JOINT LThumb
								{
									OFFSET 0 0 0
									CHANNELS 3 Zrotation Yrotation Xrotation
									End Site
									{
										OFFSET 0.43922 -0.00000 0.43922
									}
								}
							}
						}
					}
				}
				JOINT RightShoulder
				{
					OFFSET 0 0 0
					CHANNELS 3 Zrotation Yrotation Xrotation
					JOINT RightArm
					{
						OFFSET -3.21387 0.93002 -0.34594
						CHANNELS 3 Zrotation Yrotation Xrotation
						JOINT RightForeArm
						{
							OFFSET -5.23431 -0.00000 0.00000
							CHANNELS 3 Zrotation Yrotation Xrotation
							JOINT RightHand
							{
								OFFSET -3.55301 -0.00000 -0.00000
								CHANNELS 3 Zrotation Yrotation Xrotation
								JOINT RightFingerBase
								{
									OFFSET 0 0 0
									CHANNELS 3 Zrotation Yrotation Xrotation
									JOINT RightHandIndex1
									{
										OFFSET -0.77252 -0.00000 -0.00000
										CHANNELS 3 Zrotation Yrotation Xrotation
										End Site
										{
											OFFSET -0.62283 -0.00000 -0.00000
										}
									}
								}
								JOINT RThumb
								{
									OFFSET 0 0 0
									CHANNELS 3 Zrotation Yrotation Xrotation
									End Site
									{
										OFFSET -0.63234 -0.00000 0.63234
									}
								}
							}
						}
					}
				}
			}
		}
	}
}
MOTION
Frames: 7
Frame Time: .0083333
9.4362 17.8974 -20.7333 0 0 0 0 0 0 -21 0 0 0 0 0 0 0 0 0 0 0 0 0 0 21 0 0 0 0 0 0 0 0 0 0 0 0 0 0 0 0 0 0 0 0 0 0 -16 0 0 21 0 0 11 0 0 0 -8 0 0 0 0 0 0 0 0 0 0 0 0 0 0 0 0 0 0 0 0 8 0 0 0 0 0 0 0 0 0 0 0 0 0 0 0 0 0
9.4362 17.8974 -20.7333 -6.1092 79.3840 -6.0462 0.0000 0.0000 0.0000 -18.3843 -1.9453 -3.7125 1.2667 7.1339 20.1128 0.5028 -0.0051 -13.3970 0.1294 -2.3186 -6.3869 0.0000 0.0000 0.0000 9.6705 11.8044 -12.2509 -3.3778 -11.2829 33.2399 -0.7422 6.1170 -15.3602 -0.1710 -2.6639 7.3444 -5.0075 -2.3285 10.3734 1.4294 -3.5947 0.2376 4.8379 -1.6257 -5.1671 -15.6377 -14.9669 -3.3559 11.1568 -22.1291 31.1778 3.6780 -10.2195 14.4233 0.0000 -0.0000 0.0000 -86.8744 0.6150 19.7830 14.9962 -24.1409 -3.2244 -0.0000 -0.0000 5.2480 22.9187 25.3109 10.2462 -7.1250 0.0000 -0.0000 -7.4727 57.0025 -2.2061 0.0000 -0.0000 0.0000 92.4057 -3.0718 5.6221 -15.1679 24.3795 -3.2949 0.0000 0.0000 8.0822 -20.9064 9.1534 -3.4774 7.1250 -0.0000 -0.0000 4.3170 -20.2069 2.5674
9.4451 17.9029 -20.6972 -5.4699 79.7260 -5.5531 0.0000 0.0000 0.0000 -18.4391 -1.8875 -3.2246 1.1914 6.9263 19.4972 0.4816 -0.1036 -13.0768 0.1548 -2.5351 -6.9870 0.0000 0.0000 0.0000 9.1657 11.6392 -12.1064 -3.3412 -11.2279 33.0524 -0.7340 5.8454 -15.2678 -0.1686 -2.6455 7.2934 -5.1530 -2.2174 10.5179 1.3770 -3.4720 0.2912 4.8550 -1.5612 -5.2008 -15.8031 -14.8592 -3.3130 11.4663 -22.0510 31.3204 3.8485 -10.1628 14.5423 0.0000 -0.0000 0.0000 -86.7025 0.7848 20.2836 15.0428 -24.2057 -3.2435 -0.0000 -0.0000 4.9693 22.9819 25.1605 10.2211 -7.1250 0.0000 -0.0000 -7.3404 56.8608 -2.1416 0.0000 -0.0000 0.0000 92.4380 -3.2311 5.1653 -15.2456 24.4871 -3.3271 0.0000 0.0000 7.8165 -20.5591 9.2009 -3.4320 7.1250 -0.0000 -0.0000 4.5667 -20.1800 2.7195
9.4553 17.9004 -20.6584 -2.7263 80.2250 -3.0385 0.0000 0.0000 0.0000 -18.8733 -1.7234 -2.7990 1.1296 6.7505 18.9781 0.4649 -0.3204 -12.7732 0.2074 -2.9320 -8.0894 0.0000 0.0000 0.0000 8.2177 11.3330 -11.8791 -3.2794 -11.1342 32.7338 -0.7321 5.7427 -15.2461 -0.2097 -2.9481 8.1343 -5.6594 -2.2161 10.6681 1.2710 -3.5406 0.4008 5.0426 -1.5876 -5.1377 -16.1140 -14.6906 -3.4918 11.7891 -21.8531 31.5052 4.0548 -10.0589 14.7307 0.0000 0.0000 0.0000 -86.6430 0.8884 20.3751 15.0712 -24.2451 -3.2551 -0.0000 -0.0000 4.9320 23.1414 25.1011 10.2764 -7.1250 0.0000 -0.0000 -7.1439 56.8337 -2.0791 0.0000 0.0000 0.0000 92.3325 -3.2103 4.8988 -15.2271 24.4616 -3.3194 0.0000 0.0000 7.5864 -20.4966 9.3622 -3.4799 7.1250 -0.0000 -0.0000 4.6135 -20.0132 2.7649
9.4651 17.8993 -20.6200 -0.9786 80.7154 -1.4680 0.0000 0.0000 0.0000 -19.0663 -1.6121 -2.4515 1.0803 6.6065 18.5547 0.4521 -0.6136 -12.5026 0.2250 -3.0532 -8.4269 0.0000 0.0000 0.0000 7.5070 11.0999 -11.6618 -3.2136 -11.0330 32.3913 -0.7179 5.4240 -15.0951 -0.2727 -3.3588 9.2794 -5.9024 -2.1955 10.8283 1.2052 -3.5511 0.4893 5.1177 -1.5893 -5.1222 -16.3161 -14.5727 -3.6185 12.0649 -21.7249 31.6068 4.2175 -9.9836 14.8581 0.0000 0.0000 0.0000 -86.6355 0.9198 20.3909 15.0602 -24.2299 -3.2506 -0.0000 -0.0000 4.9485 22.8470 24.9080 10.0622 -7.1250 0.0000 -0.0000 -7.3779 56.5705 -2.1007 0.0000 0.0000 0.0000 92.3505 -3.1974 4.2922 -15.2602 24.5074 -3.3331 0.0000 0.0000 7.7141 -20.2548 9.4682 -3.4738 7.1250 -0.0000 -0.0000 4.7878 -19.9175 2.8803
9.4730 17.9026 -20.5821 -0.8452 81.1320 -1.4148 0.0000 0.0000 0.0000 -18.9305 -1.6029 -2.1996 1.0446 6.4999 18.2420 0.4434 -1.0136 -12.2669 0.1944 -2.8391 -7.8312 0.0000 0.0000 0.0000 7.1397 10.7688 -11.5366 -3.1361 -10.9122 31.9845 -0.6921 4.9546 -14.8222 -0.2278 -3.0722 8.4798 -5.8727 -2.1498 11.0052 1.2175 -3.4949 0.5069 5.1162 -1.5583 -5.2108 -16.4092 -14.5208 -3.6219 12.2096 -21.6765 31.6845 4.3040 -9.9509 14.9250 -0.0000 0.0000 0.0000 -86.6240 1.0549 20.4602 15.0857 -24.2653 -3.2611 -0.0000 -0.0000 4.8710 13.9753 24.5521 5.9040 -7.1250 0.0000 -0.0000 -16.3557 54.4363 -3.8705 -0.0000 0.0000 0.0000 92.3120 -3.2448 3.8345 -15.2608 24.5081 -3.3334 0.0000 0.0000 7.6681 -19.9243 9.4759 -3.4151 7.1250 -0.0000 -0.0000 5.0241 -19.9320 3.0220
9.4798 17.9048 -20.5441 -0.9424 81.4969 -1.4678 0.0000 0.0000 0.0000 -18.7547 -1.6551 -2.1028 1.0203 6.4260 18.0256 0.4417 -1.3604 -12.1550 0.1737 -2.6844 -7.4013 0.0000 0.0000 0.0000 6.7718 10.4175 -11.5342 -3.0524 -10.7795 31.5397 -0.6467 4.5687 -14.3313 -0.2225 -3.0361 8.3793 -5.8068 -2.1239 11.0340 1.2493 -3.4517 0.5127 5.1082 -1.5375 -5.2281 -16.4343 -14.4527 -3.6709 12.2704 -21.5819 31.7792 4.3538 -9.8973 14.9762 -0.0000 0.0000 0.0000 -86.5904 1.1585 20.5068 15.0814 -24.2594 -3.2593 -0.0000 -0.0000 4.8970 23.4864 25.4167 10.5643 -7.1250 0.0000 -0.0000 -6.9059 57.2358 -2.0766 -0.0000 0.0000 0.0000 92.1808 -3.2490 3.5555 -15.2215 24.4537 -3.3171 0.0000 0.0000 7.4830 -19.5336 9.6471 -3.4024 7.1250 -0.0000 -0.0000 5.3047 -19.7779 3.2105
